{"title":"The Chronicles of Narnia 3 (2010) DVDRip XviD-MAX","uid":6233563,"size":1711266023,"categoryP":"video","categoryS":"movies","magnet":"?xt=urn:btih:2b2a441b8d1c245ce3eea36c46f876b6d8c6c510&amp;dn=The+Chronicles+of+Narnia+3+%282010%29+DVDRip+XviD-MAX&amp;tr=udp%3A%2F%2Ftracker.openbittorrent.com%3A80&amp;tr=udp%3A%2F%2Fopen.demonii.com%3A1337&amp;tr=udp%3A%2F%2Ftracker.coppersurfer.tk%3A6969&amp;tr=udp%3A%2F%2Fexodus.desync.com%3A6969","seeders":12,"leechers":5,"uploader":"extremezone","files":-1,"time":1299793959,"description":" &lt;a href=&quot;http://leetleech.org/images/28343300686131507316.jpg&quot; rel=&quot;nofollow&quot; target=&quot;_NEW&quot;&gt;http://leetleech.org/images/28343300686131507316.jpg&lt;/a&gt;\n\nScreens:\n &lt;a href=&quot;\nhttp://leetleech.org/images/94738464586933814289.jpg&quot; rel=&quot;nofollow&quot; target=&quot;_NEW&quot;&gt;\nhttp://leetleech.org/images/94738464586933814289.jpg&lt;/a&gt; &lt;a href=&quot;\nhttp://leetleech.org/images/08881261831774440433.jpg&quot; rel=&quot;nofollow&quot; target=&quot;_NEW&quot;&gt;\nhttp://leetleech.org/images/08881261831774440433.jpg&lt;/a&gt; &lt;a href=&quot;\nhttp://leetleech.org/images/24253677568667095241.jpg&quot; rel=&quot;nofollow&quot; target=&quot;_NEW&quot;&gt;\nhttp://leetleech.org/images/24253677568667095241.jpg&lt;/a&gt; &lt;a href=&quot;\nhttp://leetleech.org/images/37787311221422505740.jpg&quot; rel=&quot;nofollow&quot; target=&quot;_NEW&quot;&gt;\nhttp://leetleech.org/images/37787311221422505740.jpg&lt;/a&gt;\n\nAlternative:\n &lt;a href=&quot;\nhttp://www.postimg.com/image/31000/photo-30008.jpg&quot; rel=&quot;nofollow&quot; target=&quot;_NEW&quot;&gt;\nhttp://www.postimg.com/image/31000/photo-30008.jpg&lt;/a&gt;\n &lt;a href=&quot;\nhttp://www.postimg.com/image/31000/photo-30009.jpg&quot; rel=&quot;nofollow&quot; target=&quot;_NEW&quot;&gt;\nhttp://www.postimg.com/image/31000/photo-30009.jpg&lt;/a&gt;\n &lt;a href=&quot;\nhttp://www.postimg.com/image/31000/photo-30010.jpg&quot; rel=&quot;nofollow&quot; target=&quot;_NEW&quot;&gt;\nhttp://www.postimg.com/image/31000/photo-30010.jpg&lt;/a&gt;\n &lt;a href=&quot;\nhttp://www.postimg.com/image/31000/photo-30011.jpg&quot; rel=&quot;nofollow&quot; target=&quot;_NEW&quot;&gt;\nhttp://www.postimg.com/image/31000/photo-30011.jpg&lt;/a&gt;\n\nScreenCaps:\n &lt;a href=&quot;\nhttp://www.postimg.com/image/31000/photo-30012.jpg&quot; rel=&quot;nofollow&quot; target=&quot;_NEW&quot;&gt;\nhttp://www.postimg.com/image/31000/photo-30012.jpg&lt;/a&gt;\n\nThe Chronicles of Narnia 3 (2010) DVDRip XviD-MAX\naka The Chronicles of Narnia The Voyage of the Dawn Treader (2010) DVDRip\nFormat                           : AVI\nFormat/Info                      : Audio Video Interleave\nFormat profile                   : OpenDML\nFile size                        : 1.59 GiB\nDuration                         : 1h 52mn\nOverall bit rate                 : 2 015 Kbps\nWriting application              : VirtualDubMod 1.5.10.2 (build 2542/release)\nWriting library                  : VirtualDubMod build 2542/release\nOriginal source form             : MAX TORRENTZ\nCopyright                        : SIGISMUNT\n\nVideo\nID                               : 0\nFormat                           : MPEG-4 Visual\nFormat profile                   : AdvancedSimple@L5\nFormat settings, BVOP            : Yes\nFormat settings, QPel            : No\nFormat settings, GMC             : No warppoints\nFormat settings, Matrix          : Custom\nCodec ID                         : XVID\nCodec ID/Hint                    : XviD\nDuration                         : 1h 52mn\nBit rate                         : 1 819 Kbps\nWidth                            : 720 pixels\nHeight                           : 400 pixels\nDisplay aspect ratio             : 16:9\nFrame rate                       : 23.976 fps\nResolution                       : 24 bits\nColorimetry                      : 4:2:0\nScan type                        : Progressive\nBits/(Pixel*Frame)               : 0.263\nStream size                      : 1.43 GiB (90%)\nWriting library                  : XviD 58\n\nAudio\nID                               : 1\nFormat                           : MPEG Audio\nFormat version                   : Version 1\nFormat profile                   : Layer 3\nCodec ID                         : 55\nCodec ID/Hint                    : MP3\nDuration                         : 1h 52mn\nBit rate mode                    : Constant\nBit rate                         : 192 Kbps\nChannel(s)                       : 2 channels\nSampling rate                    : 48.0 KHz\nResolution                       : 16 bits\nStream size                      : 155 MiB (10%)\nAlignment                        : Aligned on interleaves\nInterleave, duration             : 452 ms (10.84 video frames)\nInterleave, preload duration     : 216 ms\nWriting library                  : LAME3.98.2\n \nSource:DVD (perfect a/v/sync quality with additional 300% volume,sample included)\n &lt;a href=&quot;\nhttp://www.imdb.com/title/tt0980970/&quot; rel=&quot;nofollow&quot; target=&quot;_NEW&quot;&gt;\nhttp://www.imdb.com/title/tt0980970/&lt;/a&gt;\n\nThe Chronicles of Narnia 3 (2010) DVDRip XviD-MAX Torrent Free Download\n &lt;a href=&quot;\nhttp://thepiratebay.se/user/extremezone/0/7&quot; rel=&quot;nofollow&quot; target=&quot;_NEW&quot;&gt;\nhttp://thepiratebay.se/user/extremezone/0/7&lt;/a&gt;\n\nHow To Get Your Maxspeed (uTorrent)\n\nTorrent Client - Preferences - Bandwidth - Number of connections - Set aprox. 500 for each \nTorrent Client - Preferences - BiTorrent - Protocol Encryption - Forced\nBandwidth Allocation - High (Set download/upload limit - Unlimited)\nStop Other Active Torrents - Start downloading and wait for connections.\nEnjoy and Seed for at least 1:1 ratio. Don't forget to say thanks/leave reviews.\nBefore downloading you should check/google search sample &quot;release name&quot;&quot;sample&quot;.\nGreets to all actual/future p2p/scene QUALITY groups and affiliate websites.\nDon't trust IMDb robot or bad ratings,always watch some trailers first.\nIgnore stupid comments/fake/mislabeled/no-DVDrips/CAM/TS/RAR uploads.\nPlease spread this release/torrent to your friends/forums/etc.\nIf you need translation subs visit some subtitles sites.\nReport if you see online streaming or other spam links.\nRecommended movie player VLC PLAYER.","torrent":{"xt":"urn:btih:2b2a441b8d1c245ce3eea36c46f876b6d8c6c510","amp;dn":"The+Chronicles+of+Narnia+3+%282010%29+DVDRip+XviD-MAX","amp;tr":["udp%3A%2F%2Ftracker.openbittorrent.com%3A80","udp%3A%2F%2Fopen.demonii.com%3A1337","udp%3A%2F%2Ftracker.coppersurfer.tk%3A6969","udp%3A%2F%2Fexodus.desync.com%3A6969"],"infoHash":"2b2a441b8d1c245ce3eea36c46f876b6d8c6c510","infoHashBuffer":{"type":"Buffer","data":[43,42,68,27,141,28,36,92,227,238,163,108,70,248,118,182,216,198,197,16]},"announce":[],"urlList":[]}}